M48
;DRILL file {KiCad (2015-07-30 BZR 6023, Git cb629e0)-product} date 9/23/2015 11:43:25 AM
;FORMAT={-:-/ absolute / metric / decimal}
FMAT,2
METRIC,TZ
T1C0.800
T2C0.800
T3C0.813
T4C1.001
T5C1.016
T6C1.199
%
G90
G05
M71
T1
X132.13Y-69.85
X137.13Y-69.85
X140.772Y-77.62
T2
X138.272Y-77.62
T3
X145.021Y-66.954
X145.021Y-74.574
X147.561Y-66.954
X147.561Y-74.574
X150.101Y-66.954
X150.101Y-74.574
X152.641Y-66.954
X152.641Y-74.574
X155.181Y-66.954
X155.181Y-74.574
X157.721Y-66.954
X157.721Y-74.574
X160.261Y-66.954
X160.261Y-74.574
T4
X139.7Y-83.82
X139.7Y-86.36
X148.59Y-83.82
X148.59Y-86.36
X154.94Y-80.772
X155.118Y-86.144
X165.1Y-80.772
X165.278Y-86.144
T5
X130.81Y-83.82
X130.81Y-88.9
X173.647Y-66.162
X173.647Y-68.702
T6
X174.028Y-77.216
X174.028Y-82.217
X174.028Y-87.219
T0
M30
