G04 #@! TF.FileFunction,Copper,L1,Top,Signal*
%FSLAX46Y46*%
G04 Gerber Fmt 4.6, Leading zero omitted, Abs format (unit mm)*
G04 Created by KiCad (PCBNEW (2015-07-30 BZR 6023, Git cb629e0)-product) date 9/23/2015 11:43:22 AM*
%MOMM*%
G01*
G04 APERTURE LIST*
%ADD10C,0.100000*%
%ADD11C,2.499360*%
%ADD12R,2.000000X1.900000*%
%ADD13C,1.900000*%
%ADD14R,2.032000X2.032000*%
%ADD15O,2.032000X2.032000*%
%ADD16C,1.998980*%
%ADD17R,1.574800X2.286000*%
%ADD18O,1.574800X2.286000*%
%ADD19R,1.300000X1.300000*%
%ADD20C,1.300000*%
%ADD21O,2.499360X1.501140*%
%ADD22C,0.250000*%
%ADD23C,0.500000*%
G04 APERTURE END LIST*
D10*
D11*
X174028100Y-82217260D03*
X174028100Y-87218520D03*
X174028100Y-77216000D03*
D12*
X148590000Y-86360000D03*
D13*
X148590000Y-83820000D03*
D14*
X173647100Y-68701920D03*
D15*
X173647100Y-66161920D03*
D16*
X165100000Y-80772000D03*
X154940000Y-80772000D03*
D17*
X145021300Y-74574400D03*
D18*
X147561300Y-74574400D03*
X150101300Y-74574400D03*
X152641300Y-74574400D03*
X155181300Y-74574400D03*
X157721300Y-74574400D03*
X160261300Y-74574400D03*
X160261300Y-66954400D03*
X157721300Y-66954400D03*
X155181300Y-66954400D03*
X152641300Y-66954400D03*
X150101300Y-66954400D03*
X147561300Y-66954400D03*
X145021300Y-66954400D03*
D16*
X155117800Y-86144100D03*
X165277800Y-86144100D03*
D19*
X140771880Y-77619860D03*
D20*
X138271880Y-77619860D03*
D19*
X137129520Y-69850000D03*
D20*
X132129520Y-69850000D03*
D14*
X130810000Y-83820000D03*
D15*
X130810000Y-88900000D03*
D21*
X139700000Y-86360000D03*
X139700000Y-83820000D03*
D22*
X139700000Y-83820000D02*
X140970000Y-82550000D01*
X140970000Y-82550000D02*
X140970000Y-77817980D01*
X140970000Y-77817980D02*
X140771880Y-77619860D01*
X145021300Y-74574400D02*
X142917340Y-74574400D01*
X142917340Y-74574400D02*
X140771880Y-76719860D01*
X140771880Y-76719860D02*
X140771880Y-77619860D01*
D23*
X135918181Y-76969861D02*
X132129520Y-73181200D01*
X132129520Y-73181200D02*
X132129520Y-69850000D01*
X138271880Y-77619860D02*
X137621881Y-76969861D01*
X137621881Y-76969861D02*
X135918181Y-76969861D01*
D22*
X161975800Y-69850000D02*
X148853262Y-69850000D01*
X148853262Y-69850000D02*
X137129520Y-69850000D01*
X155181300Y-74574400D02*
X155181300Y-73181400D01*
X155181300Y-73181400D02*
X151849900Y-69850000D01*
X151849900Y-69850000D02*
X148853262Y-69850000D01*
X169341800Y-77216000D02*
X161975800Y-69850000D01*
X174028100Y-77216000D02*
X169341800Y-77216000D01*
X148590000Y-83820000D02*
X152400000Y-83820000D01*
X152400000Y-83820000D02*
X154724100Y-86144100D01*
X154724100Y-86144100D02*
X155117800Y-86144100D01*
D23*
X173647100Y-68701920D02*
X166491920Y-68701920D01*
X147205700Y-64770000D02*
X145021300Y-66954400D01*
X162560000Y-64770000D02*
X147205700Y-64770000D01*
X166491920Y-68701920D02*
X162560000Y-64770000D01*
D22*
X144780000Y-82550000D02*
X144780000Y-80010000D01*
X148590000Y-76200000D02*
X151130000Y-76200000D01*
X144780000Y-80010000D02*
X148590000Y-76200000D01*
X152641300Y-74574400D02*
X152641300Y-74688700D01*
X152641300Y-74688700D02*
X151130000Y-76200000D01*
X144780000Y-82550000D02*
X143510000Y-83820000D01*
X143510000Y-83820000D02*
X143510000Y-85090000D01*
X143510000Y-85090000D02*
X139700000Y-88900000D01*
X139700000Y-88900000D02*
X135890000Y-88900000D01*
X135890000Y-88900000D02*
X130810000Y-83820000D01*
X150101300Y-74574400D02*
X147561300Y-74574400D01*
X147561300Y-74574400D02*
X143510000Y-78625700D01*
X143510000Y-78625700D02*
X143510000Y-82550000D01*
X143510000Y-82550000D02*
X139700000Y-86360000D01*
X174028100Y-82217260D02*
X166545260Y-82217260D01*
X166545260Y-82217260D02*
X165100000Y-80772000D01*
X160216850Y-81083150D02*
X160216850Y-77666850D01*
X160216850Y-77666850D02*
X157721300Y-75171300D01*
X157721300Y-75171300D02*
X157721300Y-74574400D01*
X160216850Y-81083150D02*
X165277800Y-86144100D01*
X157721300Y-74574400D02*
X157721300Y-77990700D01*
X157721300Y-77990700D02*
X154940000Y-80772000D01*
M02*
