G04 #@! TF.FileFunction,Copper,L2,Bot,Signal*
%FSLAX46Y46*%
G04 Gerber Fmt 4.6, Leading zero omitted, Abs format (unit mm)*
G04 Created by KiCad (PCBNEW (2015-07-30 BZR 6023, Git cb629e0)-product) date 9/23/2015 11:43:22 AM*
%MOMM*%
G01*
G04 APERTURE LIST*
%ADD10C,0.100000*%
%ADD11C,2.499360*%
%ADD12R,2.000000X1.900000*%
%ADD13C,1.900000*%
%ADD14R,2.032000X2.032000*%
%ADD15O,2.032000X2.032000*%
%ADD16C,1.998980*%
%ADD17R,1.574800X2.286000*%
%ADD18O,1.574800X2.286000*%
%ADD19R,1.300000X1.300000*%
%ADD20C,1.300000*%
%ADD21O,2.499360X1.501140*%
%ADD22C,0.500000*%
%ADD23C,0.250000*%
%ADD24C,0.254000*%
G04 APERTURE END LIST*
D10*
D11*
X174028100Y-82217260D03*
X174028100Y-87218520D03*
X174028100Y-77216000D03*
D12*
X148590000Y-86360000D03*
D13*
X148590000Y-83820000D03*
D14*
X173647100Y-68701920D03*
D15*
X173647100Y-66161920D03*
D16*
X165100000Y-80772000D03*
X154940000Y-80772000D03*
D17*
X145021300Y-74574400D03*
D18*
X147561300Y-74574400D03*
X150101300Y-74574400D03*
X152641300Y-74574400D03*
X155181300Y-74574400D03*
X157721300Y-74574400D03*
X160261300Y-74574400D03*
X160261300Y-66954400D03*
X157721300Y-66954400D03*
X155181300Y-66954400D03*
X152641300Y-66954400D03*
X150101300Y-66954400D03*
X147561300Y-66954400D03*
X145021300Y-66954400D03*
D16*
X155117800Y-86144100D03*
X165277800Y-86144100D03*
D19*
X140771880Y-77619860D03*
D20*
X138271880Y-77619860D03*
D19*
X137129520Y-69850000D03*
D20*
X132129520Y-69850000D03*
D14*
X130810000Y-83820000D03*
D15*
X130810000Y-88900000D03*
D21*
X139700000Y-86360000D03*
X139700000Y-83820000D03*
D22*
X160261300Y-74574400D02*
X160261300Y-74218800D01*
X160261300Y-74218800D02*
X168318180Y-66161920D01*
X168318180Y-66161920D02*
X172210260Y-66161920D01*
X172210260Y-66161920D02*
X173647100Y-66161920D01*
D23*
X149108160Y-84018120D02*
X149108160Y-83464400D01*
D24*
G36*
X176390527Y-92749960D02*
X127473120Y-92749960D01*
X127473120Y-89282944D01*
X129204025Y-89282944D01*
X129403615Y-89764818D01*
X129841621Y-90237188D01*
X130427054Y-90505983D01*
X130683000Y-90387367D01*
X130683000Y-89027000D01*
X130937000Y-89027000D01*
X130937000Y-90387367D01*
X131192946Y-90505983D01*
X131778379Y-90237188D01*
X132216385Y-89764818D01*
X132415975Y-89282944D01*
X132296836Y-89027000D01*
X130937000Y-89027000D01*
X130683000Y-89027000D01*
X129323164Y-89027000D01*
X129204025Y-89282944D01*
X127473120Y-89282944D01*
X127473120Y-88517056D01*
X129204025Y-88517056D01*
X129323164Y-88773000D01*
X130683000Y-88773000D01*
X130683000Y-87412633D01*
X130937000Y-87412633D01*
X130937000Y-88773000D01*
X132296836Y-88773000D01*
X132415975Y-88517056D01*
X132216385Y-88035182D01*
X131778379Y-87562812D01*
X131192946Y-87294017D01*
X130937000Y-87412633D01*
X130683000Y-87412633D01*
X130427054Y-87294017D01*
X129841621Y-87562812D01*
X129403615Y-88035182D01*
X129204025Y-88517056D01*
X127473120Y-88517056D01*
X127473120Y-86360000D01*
X138092431Y-86360000D01*
X138174456Y-86772368D01*
X138408044Y-87121957D01*
X138757633Y-87355545D01*
X139170001Y-87437570D01*
X140229999Y-87437570D01*
X140642367Y-87355545D01*
X140991956Y-87121957D01*
X141225544Y-86772368D01*
X141250729Y-86645750D01*
X146955000Y-86645750D01*
X146955000Y-87436310D01*
X147051673Y-87669699D01*
X147230302Y-87848327D01*
X147463691Y-87945000D01*
X148304250Y-87945000D01*
X148463000Y-87786250D01*
X148463000Y-86487000D01*
X148717000Y-86487000D01*
X148717000Y-87786250D01*
X148875750Y-87945000D01*
X149716309Y-87945000D01*
X149949698Y-87848327D01*
X150128327Y-87669699D01*
X150185875Y-87530765D01*
X172451147Y-87530765D01*
X172690676Y-88110471D01*
X173133816Y-88554385D01*
X173713103Y-88794926D01*
X174340345Y-88795473D01*
X174920051Y-88555944D01*
X175363965Y-88112804D01*
X175604506Y-87533517D01*
X175605053Y-86906275D01*
X175365524Y-86326569D01*
X174922384Y-85882655D01*
X174343097Y-85642114D01*
X173715855Y-85641567D01*
X173136149Y-85881096D01*
X172692235Y-86324236D01*
X172451694Y-86903523D01*
X172451147Y-87530765D01*
X150185875Y-87530765D01*
X150225000Y-87436310D01*
X150225000Y-86645750D01*
X150066250Y-86487000D01*
X148717000Y-86487000D01*
X148463000Y-86487000D01*
X147113750Y-86487000D01*
X146955000Y-86645750D01*
X141250729Y-86645750D01*
X141298260Y-86406797D01*
X153791081Y-86406797D01*
X153992601Y-86894514D01*
X154365423Y-87267987D01*
X154852787Y-87470359D01*
X155380497Y-87470819D01*
X155868214Y-87269299D01*
X156241687Y-86896477D01*
X156444059Y-86409113D01*
X156444061Y-86406797D01*
X163951081Y-86406797D01*
X164152601Y-86894514D01*
X164525423Y-87267987D01*
X165012787Y-87470359D01*
X165540497Y-87470819D01*
X166028214Y-87269299D01*
X166401687Y-86896477D01*
X166604059Y-86409113D01*
X166604519Y-85881403D01*
X166402999Y-85393686D01*
X166030177Y-85020213D01*
X165542813Y-84817841D01*
X165015103Y-84817381D01*
X164527386Y-85018901D01*
X164153913Y-85391723D01*
X163951541Y-85879087D01*
X163951081Y-86406797D01*
X156444061Y-86406797D01*
X156444519Y-85881403D01*
X156242999Y-85393686D01*
X155870177Y-85020213D01*
X155382813Y-84817841D01*
X154855103Y-84817381D01*
X154367386Y-85018901D01*
X153993913Y-85391723D01*
X153791541Y-85879087D01*
X153791081Y-86406797D01*
X141298260Y-86406797D01*
X141307569Y-86360000D01*
X141225544Y-85947632D01*
X140991956Y-85598043D01*
X140642367Y-85364455D01*
X140236334Y-85283690D01*
X146955000Y-85283690D01*
X146955000Y-86074250D01*
X147113750Y-86233000D01*
X148463000Y-86233000D01*
X148463000Y-86213000D01*
X148717000Y-86213000D01*
X148717000Y-86233000D01*
X150066250Y-86233000D01*
X150225000Y-86074250D01*
X150225000Y-85283690D01*
X150128327Y-85050301D01*
X149949698Y-84871673D01*
X149716309Y-84775000D01*
X149440860Y-84775000D01*
X149671957Y-84544307D01*
X149866778Y-84075125D01*
X149867221Y-83567103D01*
X149673219Y-83097583D01*
X149314307Y-82738043D01*
X148845125Y-82543222D01*
X148337103Y-82542779D01*
X147867583Y-82736781D01*
X147508043Y-83095693D01*
X147313222Y-83564875D01*
X147312779Y-84072897D01*
X147506781Y-84542417D01*
X147738958Y-84775000D01*
X147463691Y-84775000D01*
X147230302Y-84871673D01*
X147051673Y-85050301D01*
X146955000Y-85283690D01*
X140236334Y-85283690D01*
X140229999Y-85282430D01*
X139170001Y-85282430D01*
X138757633Y-85364455D01*
X138408044Y-85598043D01*
X138174456Y-85947632D01*
X138092431Y-86360000D01*
X127473120Y-86360000D01*
X127473120Y-82804000D01*
X129460594Y-82804000D01*
X129460594Y-84836000D01*
X129483395Y-84957179D01*
X129555012Y-85068474D01*
X129664286Y-85143138D01*
X129794000Y-85169406D01*
X131826000Y-85169406D01*
X131947179Y-85146605D01*
X132058474Y-85074988D01*
X132133138Y-84965714D01*
X132159406Y-84836000D01*
X132159406Y-83820000D01*
X138092431Y-83820000D01*
X138174456Y-84232368D01*
X138408044Y-84581957D01*
X138757633Y-84815545D01*
X139170001Y-84897570D01*
X140229999Y-84897570D01*
X140642367Y-84815545D01*
X140991956Y-84581957D01*
X141225544Y-84232368D01*
X141307569Y-83820000D01*
X141225544Y-83407632D01*
X140991956Y-83058043D01*
X140642367Y-82824455D01*
X140229999Y-82742430D01*
X139170001Y-82742430D01*
X138757633Y-82824455D01*
X138408044Y-83058043D01*
X138174456Y-83407632D01*
X138092431Y-83820000D01*
X132159406Y-83820000D01*
X132159406Y-82804000D01*
X132136605Y-82682821D01*
X132064988Y-82571526D01*
X132003489Y-82529505D01*
X172451147Y-82529505D01*
X172690676Y-83109211D01*
X173133816Y-83553125D01*
X173713103Y-83793666D01*
X174340345Y-83794213D01*
X174920051Y-83554684D01*
X175363965Y-83111544D01*
X175604506Y-82532257D01*
X175605053Y-81905015D01*
X175365524Y-81325309D01*
X174922384Y-80881395D01*
X174343097Y-80640854D01*
X173715855Y-80640307D01*
X173136149Y-80879836D01*
X172692235Y-81322976D01*
X172451694Y-81902263D01*
X172451147Y-82529505D01*
X132003489Y-82529505D01*
X131955714Y-82496862D01*
X131826000Y-82470594D01*
X129794000Y-82470594D01*
X129672821Y-82493395D01*
X129561526Y-82565012D01*
X129486862Y-82674286D01*
X129460594Y-82804000D01*
X127473120Y-82804000D01*
X127473120Y-81034697D01*
X153613281Y-81034697D01*
X153814801Y-81522414D01*
X154187623Y-81895887D01*
X154674987Y-82098259D01*
X155202697Y-82098719D01*
X155690414Y-81897199D01*
X156063887Y-81524377D01*
X156266259Y-81037013D01*
X156266261Y-81034697D01*
X163773281Y-81034697D01*
X163974801Y-81522414D01*
X164347623Y-81895887D01*
X164834987Y-82098259D01*
X165362697Y-82098719D01*
X165850414Y-81897199D01*
X166223887Y-81524377D01*
X166426259Y-81037013D01*
X166426719Y-80509303D01*
X166225199Y-80021586D01*
X165852377Y-79648113D01*
X165365013Y-79445741D01*
X164837303Y-79445281D01*
X164349586Y-79646801D01*
X163976113Y-80019623D01*
X163773741Y-80506987D01*
X163773281Y-81034697D01*
X156266261Y-81034697D01*
X156266719Y-80509303D01*
X156065199Y-80021586D01*
X155692377Y-79648113D01*
X155205013Y-79445741D01*
X154677303Y-79445281D01*
X154189586Y-79646801D01*
X153816113Y-80019623D01*
X153613741Y-80506987D01*
X153613281Y-81034697D01*
X127473120Y-81034697D01*
X127473120Y-78518876D01*
X137552470Y-78518876D01*
X137608151Y-78749471D01*
X138090958Y-78917482D01*
X138601308Y-78887943D01*
X138935609Y-78749471D01*
X138991290Y-78518876D01*
X138271880Y-77799465D01*
X137552470Y-78518876D01*
X127473120Y-78518876D01*
X127473120Y-77438938D01*
X136974258Y-77438938D01*
X137003797Y-77949288D01*
X137142269Y-78283589D01*
X137372864Y-78339270D01*
X138092275Y-77619860D01*
X138451485Y-77619860D01*
X139170896Y-78339270D01*
X139401491Y-78283589D01*
X139569502Y-77800782D01*
X139539963Y-77290432D01*
X139407178Y-76969860D01*
X139788474Y-76969860D01*
X139788474Y-78269860D01*
X139811275Y-78391039D01*
X139882892Y-78502334D01*
X139992166Y-78576998D01*
X140121880Y-78603266D01*
X141421880Y-78603266D01*
X141543059Y-78580465D01*
X141654354Y-78508848D01*
X141729018Y-78399574D01*
X141755286Y-78269860D01*
X141755286Y-77528245D01*
X172451147Y-77528245D01*
X172690676Y-78107951D01*
X173133816Y-78551865D01*
X173713103Y-78792406D01*
X174340345Y-78792953D01*
X174920051Y-78553424D01*
X175363965Y-78110284D01*
X175604506Y-77530997D01*
X175605053Y-76903755D01*
X175365524Y-76324049D01*
X174922384Y-75880135D01*
X174343097Y-75639594D01*
X173715855Y-75639047D01*
X173136149Y-75878576D01*
X172692235Y-76321716D01*
X172451694Y-76901003D01*
X172451147Y-77528245D01*
X141755286Y-77528245D01*
X141755286Y-76969860D01*
X141732485Y-76848681D01*
X141660868Y-76737386D01*
X141551594Y-76662722D01*
X141421880Y-76636454D01*
X140121880Y-76636454D01*
X140000701Y-76659255D01*
X139889406Y-76730872D01*
X139814742Y-76840146D01*
X139788474Y-76969860D01*
X139407178Y-76969860D01*
X139401491Y-76956131D01*
X139170896Y-76900450D01*
X138451485Y-77619860D01*
X138092275Y-77619860D01*
X137372864Y-76900450D01*
X137142269Y-76956131D01*
X136974258Y-77438938D01*
X127473120Y-77438938D01*
X127473120Y-76720844D01*
X137552470Y-76720844D01*
X138271880Y-77440255D01*
X138991290Y-76720844D01*
X138935609Y-76490249D01*
X138452802Y-76322238D01*
X137942452Y-76351777D01*
X137608151Y-76490249D01*
X137552470Y-76720844D01*
X127473120Y-76720844D01*
X127473120Y-73431400D01*
X143900494Y-73431400D01*
X143900494Y-75717400D01*
X143923295Y-75838579D01*
X143994912Y-75949874D01*
X144104186Y-76024538D01*
X144233900Y-76050806D01*
X145808700Y-76050806D01*
X145929879Y-76028005D01*
X146041174Y-75956388D01*
X146115838Y-75847114D01*
X146142106Y-75717400D01*
X146142106Y-74190001D01*
X146446900Y-74190001D01*
X146446900Y-74958799D01*
X146531729Y-75385261D01*
X146773300Y-75746799D01*
X147134838Y-75988370D01*
X147561300Y-76073199D01*
X147987762Y-75988370D01*
X148349300Y-75746799D01*
X148590871Y-75385261D01*
X148675700Y-74958799D01*
X148675700Y-74190001D01*
X148986900Y-74190001D01*
X148986900Y-74958799D01*
X149071729Y-75385261D01*
X149313300Y-75746799D01*
X149674838Y-75988370D01*
X150101300Y-76073199D01*
X150527762Y-75988370D01*
X150889300Y-75746799D01*
X151130871Y-75385261D01*
X151215700Y-74958799D01*
X151215700Y-74190001D01*
X151526900Y-74190001D01*
X151526900Y-74958799D01*
X151611729Y-75385261D01*
X151853300Y-75746799D01*
X152214838Y-75988370D01*
X152641300Y-76073199D01*
X153067762Y-75988370D01*
X153429300Y-75746799D01*
X153670871Y-75385261D01*
X153755700Y-74958799D01*
X153755700Y-74190001D01*
X154066900Y-74190001D01*
X154066900Y-74958799D01*
X154151729Y-75385261D01*
X154393300Y-75746799D01*
X154754838Y-75988370D01*
X155181300Y-76073199D01*
X155607762Y-75988370D01*
X155969300Y-75746799D01*
X156210871Y-75385261D01*
X156295700Y-74958799D01*
X156295700Y-74190001D01*
X156606900Y-74190001D01*
X156606900Y-74958799D01*
X156691729Y-75385261D01*
X156933300Y-75746799D01*
X157294838Y-75988370D01*
X157721300Y-76073199D01*
X158147762Y-75988370D01*
X158509300Y-75746799D01*
X158750871Y-75385261D01*
X158835700Y-74958799D01*
X158835700Y-74701400D01*
X158838900Y-74701400D01*
X158838900Y-75057000D01*
X158995775Y-75591662D01*
X159345314Y-76025591D01*
X159834304Y-76292727D01*
X159914240Y-76309410D01*
X160134300Y-76187252D01*
X160134300Y-74701400D01*
X160388300Y-74701400D01*
X160388300Y-76187252D01*
X160608360Y-76309410D01*
X160688296Y-76292727D01*
X161177286Y-76025591D01*
X161526825Y-75591662D01*
X161683700Y-75057000D01*
X161683700Y-74701400D01*
X160388300Y-74701400D01*
X160134300Y-74701400D01*
X158838900Y-74701400D01*
X158835700Y-74701400D01*
X158835700Y-74190001D01*
X158816167Y-74091800D01*
X158838900Y-74091800D01*
X158838900Y-74447400D01*
X160134300Y-74447400D01*
X160134300Y-72961548D01*
X160388300Y-72961548D01*
X160388300Y-74447400D01*
X161683700Y-74447400D01*
X161683700Y-74091800D01*
X161526825Y-73557138D01*
X161177286Y-73123209D01*
X160688296Y-72856073D01*
X160608360Y-72839390D01*
X160388300Y-72961548D01*
X160134300Y-72961548D01*
X159914240Y-72839390D01*
X159834304Y-72856073D01*
X159345314Y-73123209D01*
X158995775Y-73557138D01*
X158838900Y-74091800D01*
X158816167Y-74091800D01*
X158750871Y-73763539D01*
X158509300Y-73402001D01*
X158147762Y-73160430D01*
X157721300Y-73075601D01*
X157294838Y-73160430D01*
X156933300Y-73402001D01*
X156691729Y-73763539D01*
X156606900Y-74190001D01*
X156295700Y-74190001D01*
X156210871Y-73763539D01*
X155969300Y-73402001D01*
X155607762Y-73160430D01*
X155181300Y-73075601D01*
X154754838Y-73160430D01*
X154393300Y-73402001D01*
X154151729Y-73763539D01*
X154066900Y-74190001D01*
X153755700Y-74190001D01*
X153670871Y-73763539D01*
X153429300Y-73402001D01*
X153067762Y-73160430D01*
X152641300Y-73075601D01*
X152214838Y-73160430D01*
X151853300Y-73402001D01*
X151611729Y-73763539D01*
X151526900Y-74190001D01*
X151215700Y-74190001D01*
X151130871Y-73763539D01*
X150889300Y-73402001D01*
X150527762Y-73160430D01*
X150101300Y-73075601D01*
X149674838Y-73160430D01*
X149313300Y-73402001D01*
X149071729Y-73763539D01*
X148986900Y-74190001D01*
X148675700Y-74190001D01*
X148590871Y-73763539D01*
X148349300Y-73402001D01*
X147987762Y-73160430D01*
X147561300Y-73075601D01*
X147134838Y-73160430D01*
X146773300Y-73402001D01*
X146531729Y-73763539D01*
X146446900Y-74190001D01*
X146142106Y-74190001D01*
X146142106Y-73431400D01*
X146119305Y-73310221D01*
X146047688Y-73198926D01*
X145938414Y-73124262D01*
X145808700Y-73097994D01*
X144233900Y-73097994D01*
X144112721Y-73120795D01*
X144001426Y-73192412D01*
X143926762Y-73301686D01*
X143900494Y-73431400D01*
X127473120Y-73431400D01*
X127473120Y-70749016D01*
X131410110Y-70749016D01*
X131465791Y-70979611D01*
X131948598Y-71147622D01*
X132458948Y-71118083D01*
X132793249Y-70979611D01*
X132848930Y-70749016D01*
X132129520Y-70029605D01*
X131410110Y-70749016D01*
X127473120Y-70749016D01*
X127473120Y-69669078D01*
X130831898Y-69669078D01*
X130861437Y-70179428D01*
X130999909Y-70513729D01*
X131230504Y-70569410D01*
X131949915Y-69850000D01*
X132309125Y-69850000D01*
X133028536Y-70569410D01*
X133259131Y-70513729D01*
X133427142Y-70030922D01*
X133397603Y-69520572D01*
X133264818Y-69200000D01*
X136146114Y-69200000D01*
X136146114Y-70500000D01*
X136168915Y-70621179D01*
X136240532Y-70732474D01*
X136349806Y-70807138D01*
X136479520Y-70833406D01*
X137779520Y-70833406D01*
X137900699Y-70810605D01*
X138011994Y-70738988D01*
X138086658Y-70629714D01*
X138112926Y-70500000D01*
X138112926Y-69200000D01*
X138090125Y-69078821D01*
X138018508Y-68967526D01*
X137909234Y-68892862D01*
X137779520Y-68866594D01*
X136479520Y-68866594D01*
X136358341Y-68889395D01*
X136247046Y-68961012D01*
X136172382Y-69070286D01*
X136146114Y-69200000D01*
X133264818Y-69200000D01*
X133259131Y-69186271D01*
X133028536Y-69130590D01*
X132309125Y-69850000D01*
X131949915Y-69850000D01*
X131230504Y-69130590D01*
X130999909Y-69186271D01*
X130831898Y-69669078D01*
X127473120Y-69669078D01*
X127473120Y-68950984D01*
X131410110Y-68950984D01*
X132129520Y-69670395D01*
X132848930Y-68950984D01*
X132793249Y-68720389D01*
X132310442Y-68552378D01*
X131800092Y-68581917D01*
X131465791Y-68720389D01*
X131410110Y-68950984D01*
X127473120Y-68950984D01*
X127473120Y-66570001D01*
X143906900Y-66570001D01*
X143906900Y-67338799D01*
X143991729Y-67765261D01*
X144233300Y-68126799D01*
X144594838Y-68368370D01*
X145021300Y-68453199D01*
X145447762Y-68368370D01*
X145809300Y-68126799D01*
X146050871Y-67765261D01*
X146135700Y-67338799D01*
X146135700Y-66570001D01*
X146446900Y-66570001D01*
X146446900Y-67338799D01*
X146531729Y-67765261D01*
X146773300Y-68126799D01*
X147134838Y-68368370D01*
X147561300Y-68453199D01*
X147987762Y-68368370D01*
X148349300Y-68126799D01*
X148590871Y-67765261D01*
X148675700Y-67338799D01*
X148675700Y-66570001D01*
X148986900Y-66570001D01*
X148986900Y-67338799D01*
X149071729Y-67765261D01*
X149313300Y-68126799D01*
X149674838Y-68368370D01*
X150101300Y-68453199D01*
X150527762Y-68368370D01*
X150889300Y-68126799D01*
X151130871Y-67765261D01*
X151215700Y-67338799D01*
X151215700Y-66570001D01*
X151526900Y-66570001D01*
X151526900Y-67338799D01*
X151611729Y-67765261D01*
X151853300Y-68126799D01*
X152214838Y-68368370D01*
X152641300Y-68453199D01*
X153067762Y-68368370D01*
X153429300Y-68126799D01*
X153670871Y-67765261D01*
X153755700Y-67338799D01*
X153755700Y-66570001D01*
X154066900Y-66570001D01*
X154066900Y-67338799D01*
X154151729Y-67765261D01*
X154393300Y-68126799D01*
X154754838Y-68368370D01*
X155181300Y-68453199D01*
X155607762Y-68368370D01*
X155969300Y-68126799D01*
X156210871Y-67765261D01*
X156295700Y-67338799D01*
X156295700Y-66570001D01*
X156606900Y-66570001D01*
X156606900Y-67338799D01*
X156691729Y-67765261D01*
X156933300Y-68126799D01*
X157294838Y-68368370D01*
X157721300Y-68453199D01*
X158147762Y-68368370D01*
X158509300Y-68126799D01*
X158750871Y-67765261D01*
X158835700Y-67338799D01*
X158835700Y-66570001D01*
X159146900Y-66570001D01*
X159146900Y-67338799D01*
X159231729Y-67765261D01*
X159473300Y-68126799D01*
X159834838Y-68368370D01*
X160261300Y-68453199D01*
X160687762Y-68368370D01*
X161049300Y-68126799D01*
X161290871Y-67765261D01*
X161375700Y-67338799D01*
X161375700Y-66570001D01*
X161370700Y-66544864D01*
X172041125Y-66544864D01*
X172240715Y-67026738D01*
X172555910Y-67366662D01*
X172509921Y-67375315D01*
X172398626Y-67446932D01*
X172323962Y-67556206D01*
X172297694Y-67685920D01*
X172297694Y-69717920D01*
X172320495Y-69839099D01*
X172392112Y-69950394D01*
X172501386Y-70025058D01*
X172631100Y-70051326D01*
X174663100Y-70051326D01*
X174784279Y-70028525D01*
X174895574Y-69956908D01*
X174970238Y-69847634D01*
X174996506Y-69717920D01*
X174996506Y-67685920D01*
X174973705Y-67564741D01*
X174902088Y-67453446D01*
X174792814Y-67378782D01*
X174737448Y-67367570D01*
X175053485Y-67026738D01*
X175253075Y-66544864D01*
X175133936Y-66288920D01*
X173774100Y-66288920D01*
X173774100Y-66308920D01*
X173520100Y-66308920D01*
X173520100Y-66288920D01*
X172160264Y-66288920D01*
X172041125Y-66544864D01*
X161370700Y-66544864D01*
X161290871Y-66143539D01*
X161049300Y-65782001D01*
X161044773Y-65778976D01*
X172041125Y-65778976D01*
X172160264Y-66034920D01*
X173520100Y-66034920D01*
X173520100Y-64674553D01*
X173774100Y-64674553D01*
X173774100Y-66034920D01*
X175133936Y-66034920D01*
X175253075Y-65778976D01*
X175053485Y-65297102D01*
X174615479Y-64824732D01*
X174030046Y-64555937D01*
X173774100Y-64674553D01*
X173520100Y-64674553D01*
X173264154Y-64555937D01*
X172678721Y-64824732D01*
X172240715Y-65297102D01*
X172041125Y-65778976D01*
X161044773Y-65778976D01*
X160687762Y-65540430D01*
X160261300Y-65455601D01*
X159834838Y-65540430D01*
X159473300Y-65782001D01*
X159231729Y-66143539D01*
X159146900Y-66570001D01*
X158835700Y-66570001D01*
X158750871Y-66143539D01*
X158509300Y-65782001D01*
X158147762Y-65540430D01*
X157721300Y-65455601D01*
X157294838Y-65540430D01*
X156933300Y-65782001D01*
X156691729Y-66143539D01*
X156606900Y-66570001D01*
X156295700Y-66570001D01*
X156210871Y-66143539D01*
X155969300Y-65782001D01*
X155607762Y-65540430D01*
X155181300Y-65455601D01*
X154754838Y-65540430D01*
X154393300Y-65782001D01*
X154151729Y-66143539D01*
X154066900Y-66570001D01*
X153755700Y-66570001D01*
X153670871Y-66143539D01*
X153429300Y-65782001D01*
X153067762Y-65540430D01*
X152641300Y-65455601D01*
X152214838Y-65540430D01*
X151853300Y-65782001D01*
X151611729Y-66143539D01*
X151526900Y-66570001D01*
X151215700Y-66570001D01*
X151130871Y-66143539D01*
X150889300Y-65782001D01*
X150527762Y-65540430D01*
X150101300Y-65455601D01*
X149674838Y-65540430D01*
X149313300Y-65782001D01*
X149071729Y-66143539D01*
X148986900Y-66570001D01*
X148675700Y-66570001D01*
X148590871Y-66143539D01*
X148349300Y-65782001D01*
X147987762Y-65540430D01*
X147561300Y-65455601D01*
X147134838Y-65540430D01*
X146773300Y-65782001D01*
X146531729Y-66143539D01*
X146446900Y-66570001D01*
X146135700Y-66570001D01*
X146050871Y-66143539D01*
X145809300Y-65782001D01*
X145447762Y-65540430D01*
X145021300Y-65455601D01*
X144594838Y-65540430D01*
X144233300Y-65782001D01*
X143991729Y-66143539D01*
X143906900Y-66570001D01*
X127473120Y-66570001D01*
X127473120Y-63718017D01*
X176268868Y-63602280D01*
X176428235Y-63602280D01*
X176390527Y-92749960D01*
X176390527Y-92749960D01*
G37*
X176390527Y-92749960D02*
X127473120Y-92749960D01*
X127473120Y-89282944D01*
X129204025Y-89282944D01*
X129403615Y-89764818D01*
X129841621Y-90237188D01*
X130427054Y-90505983D01*
X130683000Y-90387367D01*
X130683000Y-89027000D01*
X130937000Y-89027000D01*
X130937000Y-90387367D01*
X131192946Y-90505983D01*
X131778379Y-90237188D01*
X132216385Y-89764818D01*
X132415975Y-89282944D01*
X132296836Y-89027000D01*
X130937000Y-89027000D01*
X130683000Y-89027000D01*
X129323164Y-89027000D01*
X129204025Y-89282944D01*
X127473120Y-89282944D01*
X127473120Y-88517056D01*
X129204025Y-88517056D01*
X129323164Y-88773000D01*
X130683000Y-88773000D01*
X130683000Y-87412633D01*
X130937000Y-87412633D01*
X130937000Y-88773000D01*
X132296836Y-88773000D01*
X132415975Y-88517056D01*
X132216385Y-88035182D01*
X131778379Y-87562812D01*
X131192946Y-87294017D01*
X130937000Y-87412633D01*
X130683000Y-87412633D01*
X130427054Y-87294017D01*
X129841621Y-87562812D01*
X129403615Y-88035182D01*
X129204025Y-88517056D01*
X127473120Y-88517056D01*
X127473120Y-86360000D01*
X138092431Y-86360000D01*
X138174456Y-86772368D01*
X138408044Y-87121957D01*
X138757633Y-87355545D01*
X139170001Y-87437570D01*
X140229999Y-87437570D01*
X140642367Y-87355545D01*
X140991956Y-87121957D01*
X141225544Y-86772368D01*
X141250729Y-86645750D01*
X146955000Y-86645750D01*
X146955000Y-87436310D01*
X147051673Y-87669699D01*
X147230302Y-87848327D01*
X147463691Y-87945000D01*
X148304250Y-87945000D01*
X148463000Y-87786250D01*
X148463000Y-86487000D01*
X148717000Y-86487000D01*
X148717000Y-87786250D01*
X148875750Y-87945000D01*
X149716309Y-87945000D01*
X149949698Y-87848327D01*
X150128327Y-87669699D01*
X150185875Y-87530765D01*
X172451147Y-87530765D01*
X172690676Y-88110471D01*
X173133816Y-88554385D01*
X173713103Y-88794926D01*
X174340345Y-88795473D01*
X174920051Y-88555944D01*
X175363965Y-88112804D01*
X175604506Y-87533517D01*
X175605053Y-86906275D01*
X175365524Y-86326569D01*
X174922384Y-85882655D01*
X174343097Y-85642114D01*
X173715855Y-85641567D01*
X173136149Y-85881096D01*
X172692235Y-86324236D01*
X172451694Y-86903523D01*
X172451147Y-87530765D01*
X150185875Y-87530765D01*
X150225000Y-87436310D01*
X150225000Y-86645750D01*
X150066250Y-86487000D01*
X148717000Y-86487000D01*
X148463000Y-86487000D01*
X147113750Y-86487000D01*
X146955000Y-86645750D01*
X141250729Y-86645750D01*
X141298260Y-86406797D01*
X153791081Y-86406797D01*
X153992601Y-86894514D01*
X154365423Y-87267987D01*
X154852787Y-87470359D01*
X155380497Y-87470819D01*
X155868214Y-87269299D01*
X156241687Y-86896477D01*
X156444059Y-86409113D01*
X156444061Y-86406797D01*
X163951081Y-86406797D01*
X164152601Y-86894514D01*
X164525423Y-87267987D01*
X165012787Y-87470359D01*
X165540497Y-87470819D01*
X166028214Y-87269299D01*
X166401687Y-86896477D01*
X166604059Y-86409113D01*
X166604519Y-85881403D01*
X166402999Y-85393686D01*
X166030177Y-85020213D01*
X165542813Y-84817841D01*
X165015103Y-84817381D01*
X164527386Y-85018901D01*
X164153913Y-85391723D01*
X163951541Y-85879087D01*
X163951081Y-86406797D01*
X156444061Y-86406797D01*
X156444519Y-85881403D01*
X156242999Y-85393686D01*
X155870177Y-85020213D01*
X155382813Y-84817841D01*
X154855103Y-84817381D01*
X154367386Y-85018901D01*
X153993913Y-85391723D01*
X153791541Y-85879087D01*
X153791081Y-86406797D01*
X141298260Y-86406797D01*
X141307569Y-86360000D01*
X141225544Y-85947632D01*
X140991956Y-85598043D01*
X140642367Y-85364455D01*
X140236334Y-85283690D01*
X146955000Y-85283690D01*
X146955000Y-86074250D01*
X147113750Y-86233000D01*
X148463000Y-86233000D01*
X148463000Y-86213000D01*
X148717000Y-86213000D01*
X148717000Y-86233000D01*
X150066250Y-86233000D01*
X150225000Y-86074250D01*
X150225000Y-85283690D01*
X150128327Y-85050301D01*
X149949698Y-84871673D01*
X149716309Y-84775000D01*
X149440860Y-84775000D01*
X149671957Y-84544307D01*
X149866778Y-84075125D01*
X149867221Y-83567103D01*
X149673219Y-83097583D01*
X149314307Y-82738043D01*
X148845125Y-82543222D01*
X148337103Y-82542779D01*
X147867583Y-82736781D01*
X147508043Y-83095693D01*
X147313222Y-83564875D01*
X147312779Y-84072897D01*
X147506781Y-84542417D01*
X147738958Y-84775000D01*
X147463691Y-84775000D01*
X147230302Y-84871673D01*
X147051673Y-85050301D01*
X146955000Y-85283690D01*
X140236334Y-85283690D01*
X140229999Y-85282430D01*
X139170001Y-85282430D01*
X138757633Y-85364455D01*
X138408044Y-85598043D01*
X138174456Y-85947632D01*
X138092431Y-86360000D01*
X127473120Y-86360000D01*
X127473120Y-82804000D01*
X129460594Y-82804000D01*
X129460594Y-84836000D01*
X129483395Y-84957179D01*
X129555012Y-85068474D01*
X129664286Y-85143138D01*
X129794000Y-85169406D01*
X131826000Y-85169406D01*
X131947179Y-85146605D01*
X132058474Y-85074988D01*
X132133138Y-84965714D01*
X132159406Y-84836000D01*
X132159406Y-83820000D01*
X138092431Y-83820000D01*
X138174456Y-84232368D01*
X138408044Y-84581957D01*
X138757633Y-84815545D01*
X139170001Y-84897570D01*
X140229999Y-84897570D01*
X140642367Y-84815545D01*
X140991956Y-84581957D01*
X141225544Y-84232368D01*
X141307569Y-83820000D01*
X141225544Y-83407632D01*
X140991956Y-83058043D01*
X140642367Y-82824455D01*
X140229999Y-82742430D01*
X139170001Y-82742430D01*
X138757633Y-82824455D01*
X138408044Y-83058043D01*
X138174456Y-83407632D01*
X138092431Y-83820000D01*
X132159406Y-83820000D01*
X132159406Y-82804000D01*
X132136605Y-82682821D01*
X132064988Y-82571526D01*
X132003489Y-82529505D01*
X172451147Y-82529505D01*
X172690676Y-83109211D01*
X173133816Y-83553125D01*
X173713103Y-83793666D01*
X174340345Y-83794213D01*
X174920051Y-83554684D01*
X175363965Y-83111544D01*
X175604506Y-82532257D01*
X175605053Y-81905015D01*
X175365524Y-81325309D01*
X174922384Y-80881395D01*
X174343097Y-80640854D01*
X173715855Y-80640307D01*
X173136149Y-80879836D01*
X172692235Y-81322976D01*
X172451694Y-81902263D01*
X172451147Y-82529505D01*
X132003489Y-82529505D01*
X131955714Y-82496862D01*
X131826000Y-82470594D01*
X129794000Y-82470594D01*
X129672821Y-82493395D01*
X129561526Y-82565012D01*
X129486862Y-82674286D01*
X129460594Y-82804000D01*
X127473120Y-82804000D01*
X127473120Y-81034697D01*
X153613281Y-81034697D01*
X153814801Y-81522414D01*
X154187623Y-81895887D01*
X154674987Y-82098259D01*
X155202697Y-82098719D01*
X155690414Y-81897199D01*
X156063887Y-81524377D01*
X156266259Y-81037013D01*
X156266261Y-81034697D01*
X163773281Y-81034697D01*
X163974801Y-81522414D01*
X164347623Y-81895887D01*
X164834987Y-82098259D01*
X165362697Y-82098719D01*
X165850414Y-81897199D01*
X166223887Y-81524377D01*
X166426259Y-81037013D01*
X166426719Y-80509303D01*
X166225199Y-80021586D01*
X165852377Y-79648113D01*
X165365013Y-79445741D01*
X164837303Y-79445281D01*
X164349586Y-79646801D01*
X163976113Y-80019623D01*
X163773741Y-80506987D01*
X163773281Y-81034697D01*
X156266261Y-81034697D01*
X156266719Y-80509303D01*
X156065199Y-80021586D01*
X155692377Y-79648113D01*
X155205013Y-79445741D01*
X154677303Y-79445281D01*
X154189586Y-79646801D01*
X153816113Y-80019623D01*
X153613741Y-80506987D01*
X153613281Y-81034697D01*
X127473120Y-81034697D01*
X127473120Y-78518876D01*
X137552470Y-78518876D01*
X137608151Y-78749471D01*
X138090958Y-78917482D01*
X138601308Y-78887943D01*
X138935609Y-78749471D01*
X138991290Y-78518876D01*
X138271880Y-77799465D01*
X137552470Y-78518876D01*
X127473120Y-78518876D01*
X127473120Y-77438938D01*
X136974258Y-77438938D01*
X137003797Y-77949288D01*
X137142269Y-78283589D01*
X137372864Y-78339270D01*
X138092275Y-77619860D01*
X138451485Y-77619860D01*
X139170896Y-78339270D01*
X139401491Y-78283589D01*
X139569502Y-77800782D01*
X139539963Y-77290432D01*
X139407178Y-76969860D01*
X139788474Y-76969860D01*
X139788474Y-78269860D01*
X139811275Y-78391039D01*
X139882892Y-78502334D01*
X139992166Y-78576998D01*
X140121880Y-78603266D01*
X141421880Y-78603266D01*
X141543059Y-78580465D01*
X141654354Y-78508848D01*
X141729018Y-78399574D01*
X141755286Y-78269860D01*
X141755286Y-77528245D01*
X172451147Y-77528245D01*
X172690676Y-78107951D01*
X173133816Y-78551865D01*
X173713103Y-78792406D01*
X174340345Y-78792953D01*
X174920051Y-78553424D01*
X175363965Y-78110284D01*
X175604506Y-77530997D01*
X175605053Y-76903755D01*
X175365524Y-76324049D01*
X174922384Y-75880135D01*
X174343097Y-75639594D01*
X173715855Y-75639047D01*
X173136149Y-75878576D01*
X172692235Y-76321716D01*
X172451694Y-76901003D01*
X172451147Y-77528245D01*
X141755286Y-77528245D01*
X141755286Y-76969860D01*
X141732485Y-76848681D01*
X141660868Y-76737386D01*
X141551594Y-76662722D01*
X141421880Y-76636454D01*
X140121880Y-76636454D01*
X140000701Y-76659255D01*
X139889406Y-76730872D01*
X139814742Y-76840146D01*
X139788474Y-76969860D01*
X139407178Y-76969860D01*
X139401491Y-76956131D01*
X139170896Y-76900450D01*
X138451485Y-77619860D01*
X138092275Y-77619860D01*
X137372864Y-76900450D01*
X137142269Y-76956131D01*
X136974258Y-77438938D01*
X127473120Y-77438938D01*
X127473120Y-76720844D01*
X137552470Y-76720844D01*
X138271880Y-77440255D01*
X138991290Y-76720844D01*
X138935609Y-76490249D01*
X138452802Y-76322238D01*
X137942452Y-76351777D01*
X137608151Y-76490249D01*
X137552470Y-76720844D01*
X127473120Y-76720844D01*
X127473120Y-73431400D01*
X143900494Y-73431400D01*
X143900494Y-75717400D01*
X143923295Y-75838579D01*
X143994912Y-75949874D01*
X144104186Y-76024538D01*
X144233900Y-76050806D01*
X145808700Y-76050806D01*
X145929879Y-76028005D01*
X146041174Y-75956388D01*
X146115838Y-75847114D01*
X146142106Y-75717400D01*
X146142106Y-74190001D01*
X146446900Y-74190001D01*
X146446900Y-74958799D01*
X146531729Y-75385261D01*
X146773300Y-75746799D01*
X147134838Y-75988370D01*
X147561300Y-76073199D01*
X147987762Y-75988370D01*
X148349300Y-75746799D01*
X148590871Y-75385261D01*
X148675700Y-74958799D01*
X148675700Y-74190001D01*
X148986900Y-74190001D01*
X148986900Y-74958799D01*
X149071729Y-75385261D01*
X149313300Y-75746799D01*
X149674838Y-75988370D01*
X150101300Y-76073199D01*
X150527762Y-75988370D01*
X150889300Y-75746799D01*
X151130871Y-75385261D01*
X151215700Y-74958799D01*
X151215700Y-74190001D01*
X151526900Y-74190001D01*
X151526900Y-74958799D01*
X151611729Y-75385261D01*
X151853300Y-75746799D01*
X152214838Y-75988370D01*
X152641300Y-76073199D01*
X153067762Y-75988370D01*
X153429300Y-75746799D01*
X153670871Y-75385261D01*
X153755700Y-74958799D01*
X153755700Y-74190001D01*
X154066900Y-74190001D01*
X154066900Y-74958799D01*
X154151729Y-75385261D01*
X154393300Y-75746799D01*
X154754838Y-75988370D01*
X155181300Y-76073199D01*
X155607762Y-75988370D01*
X155969300Y-75746799D01*
X156210871Y-75385261D01*
X156295700Y-74958799D01*
X156295700Y-74190001D01*
X156606900Y-74190001D01*
X156606900Y-74958799D01*
X156691729Y-75385261D01*
X156933300Y-75746799D01*
X157294838Y-75988370D01*
X157721300Y-76073199D01*
X158147762Y-75988370D01*
X158509300Y-75746799D01*
X158750871Y-75385261D01*
X158835700Y-74958799D01*
X158835700Y-74701400D01*
X158838900Y-74701400D01*
X158838900Y-75057000D01*
X158995775Y-75591662D01*
X159345314Y-76025591D01*
X159834304Y-76292727D01*
X159914240Y-76309410D01*
X160134300Y-76187252D01*
X160134300Y-74701400D01*
X160388300Y-74701400D01*
X160388300Y-76187252D01*
X160608360Y-76309410D01*
X160688296Y-76292727D01*
X161177286Y-76025591D01*
X161526825Y-75591662D01*
X161683700Y-75057000D01*
X161683700Y-74701400D01*
X160388300Y-74701400D01*
X160134300Y-74701400D01*
X158838900Y-74701400D01*
X158835700Y-74701400D01*
X158835700Y-74190001D01*
X158816167Y-74091800D01*
X158838900Y-74091800D01*
X158838900Y-74447400D01*
X160134300Y-74447400D01*
X160134300Y-72961548D01*
X160388300Y-72961548D01*
X160388300Y-74447400D01*
X161683700Y-74447400D01*
X161683700Y-74091800D01*
X161526825Y-73557138D01*
X161177286Y-73123209D01*
X160688296Y-72856073D01*
X160608360Y-72839390D01*
X160388300Y-72961548D01*
X160134300Y-72961548D01*
X159914240Y-72839390D01*
X159834304Y-72856073D01*
X159345314Y-73123209D01*
X158995775Y-73557138D01*
X158838900Y-74091800D01*
X158816167Y-74091800D01*
X158750871Y-73763539D01*
X158509300Y-73402001D01*
X158147762Y-73160430D01*
X157721300Y-73075601D01*
X157294838Y-73160430D01*
X156933300Y-73402001D01*
X156691729Y-73763539D01*
X156606900Y-74190001D01*
X156295700Y-74190001D01*
X156210871Y-73763539D01*
X155969300Y-73402001D01*
X155607762Y-73160430D01*
X155181300Y-73075601D01*
X154754838Y-73160430D01*
X154393300Y-73402001D01*
X154151729Y-73763539D01*
X154066900Y-74190001D01*
X153755700Y-74190001D01*
X153670871Y-73763539D01*
X153429300Y-73402001D01*
X153067762Y-73160430D01*
X152641300Y-73075601D01*
X152214838Y-73160430D01*
X151853300Y-73402001D01*
X151611729Y-73763539D01*
X151526900Y-74190001D01*
X151215700Y-74190001D01*
X151130871Y-73763539D01*
X150889300Y-73402001D01*
X150527762Y-73160430D01*
X150101300Y-73075601D01*
X149674838Y-73160430D01*
X149313300Y-73402001D01*
X149071729Y-73763539D01*
X148986900Y-74190001D01*
X148675700Y-74190001D01*
X148590871Y-73763539D01*
X148349300Y-73402001D01*
X147987762Y-73160430D01*
X147561300Y-73075601D01*
X147134838Y-73160430D01*
X146773300Y-73402001D01*
X146531729Y-73763539D01*
X146446900Y-74190001D01*
X146142106Y-74190001D01*
X146142106Y-73431400D01*
X146119305Y-73310221D01*
X146047688Y-73198926D01*
X145938414Y-73124262D01*
X145808700Y-73097994D01*
X144233900Y-73097994D01*
X144112721Y-73120795D01*
X144001426Y-73192412D01*
X143926762Y-73301686D01*
X143900494Y-73431400D01*
X127473120Y-73431400D01*
X127473120Y-70749016D01*
X131410110Y-70749016D01*
X131465791Y-70979611D01*
X131948598Y-71147622D01*
X132458948Y-71118083D01*
X132793249Y-70979611D01*
X132848930Y-70749016D01*
X132129520Y-70029605D01*
X131410110Y-70749016D01*
X127473120Y-70749016D01*
X127473120Y-69669078D01*
X130831898Y-69669078D01*
X130861437Y-70179428D01*
X130999909Y-70513729D01*
X131230504Y-70569410D01*
X131949915Y-69850000D01*
X132309125Y-69850000D01*
X133028536Y-70569410D01*
X133259131Y-70513729D01*
X133427142Y-70030922D01*
X133397603Y-69520572D01*
X133264818Y-69200000D01*
X136146114Y-69200000D01*
X136146114Y-70500000D01*
X136168915Y-70621179D01*
X136240532Y-70732474D01*
X136349806Y-70807138D01*
X136479520Y-70833406D01*
X137779520Y-70833406D01*
X137900699Y-70810605D01*
X138011994Y-70738988D01*
X138086658Y-70629714D01*
X138112926Y-70500000D01*
X138112926Y-69200000D01*
X138090125Y-69078821D01*
X138018508Y-68967526D01*
X137909234Y-68892862D01*
X137779520Y-68866594D01*
X136479520Y-68866594D01*
X136358341Y-68889395D01*
X136247046Y-68961012D01*
X136172382Y-69070286D01*
X136146114Y-69200000D01*
X133264818Y-69200000D01*
X133259131Y-69186271D01*
X133028536Y-69130590D01*
X132309125Y-69850000D01*
X131949915Y-69850000D01*
X131230504Y-69130590D01*
X130999909Y-69186271D01*
X130831898Y-69669078D01*
X127473120Y-69669078D01*
X127473120Y-68950984D01*
X131410110Y-68950984D01*
X132129520Y-69670395D01*
X132848930Y-68950984D01*
X132793249Y-68720389D01*
X132310442Y-68552378D01*
X131800092Y-68581917D01*
X131465791Y-68720389D01*
X131410110Y-68950984D01*
X127473120Y-68950984D01*
X127473120Y-66570001D01*
X143906900Y-66570001D01*
X143906900Y-67338799D01*
X143991729Y-67765261D01*
X144233300Y-68126799D01*
X144594838Y-68368370D01*
X145021300Y-68453199D01*
X145447762Y-68368370D01*
X145809300Y-68126799D01*
X146050871Y-67765261D01*
X146135700Y-67338799D01*
X146135700Y-66570001D01*
X146446900Y-66570001D01*
X146446900Y-67338799D01*
X146531729Y-67765261D01*
X146773300Y-68126799D01*
X147134838Y-68368370D01*
X147561300Y-68453199D01*
X147987762Y-68368370D01*
X148349300Y-68126799D01*
X148590871Y-67765261D01*
X148675700Y-67338799D01*
X148675700Y-66570001D01*
X148986900Y-66570001D01*
X148986900Y-67338799D01*
X149071729Y-67765261D01*
X149313300Y-68126799D01*
X149674838Y-68368370D01*
X150101300Y-68453199D01*
X150527762Y-68368370D01*
X150889300Y-68126799D01*
X151130871Y-67765261D01*
X151215700Y-67338799D01*
X151215700Y-66570001D01*
X151526900Y-66570001D01*
X151526900Y-67338799D01*
X151611729Y-67765261D01*
X151853300Y-68126799D01*
X152214838Y-68368370D01*
X152641300Y-68453199D01*
X153067762Y-68368370D01*
X153429300Y-68126799D01*
X153670871Y-67765261D01*
X153755700Y-67338799D01*
X153755700Y-66570001D01*
X154066900Y-66570001D01*
X154066900Y-67338799D01*
X154151729Y-67765261D01*
X154393300Y-68126799D01*
X154754838Y-68368370D01*
X155181300Y-68453199D01*
X155607762Y-68368370D01*
X155969300Y-68126799D01*
X156210871Y-67765261D01*
X156295700Y-67338799D01*
X156295700Y-66570001D01*
X156606900Y-66570001D01*
X156606900Y-67338799D01*
X156691729Y-67765261D01*
X156933300Y-68126799D01*
X157294838Y-68368370D01*
X157721300Y-68453199D01*
X158147762Y-68368370D01*
X158509300Y-68126799D01*
X158750871Y-67765261D01*
X158835700Y-67338799D01*
X158835700Y-66570001D01*
X159146900Y-66570001D01*
X159146900Y-67338799D01*
X159231729Y-67765261D01*
X159473300Y-68126799D01*
X159834838Y-68368370D01*
X160261300Y-68453199D01*
X160687762Y-68368370D01*
X161049300Y-68126799D01*
X161290871Y-67765261D01*
X161375700Y-67338799D01*
X161375700Y-66570001D01*
X161370700Y-66544864D01*
X172041125Y-66544864D01*
X172240715Y-67026738D01*
X172555910Y-67366662D01*
X172509921Y-67375315D01*
X172398626Y-67446932D01*
X172323962Y-67556206D01*
X172297694Y-67685920D01*
X172297694Y-69717920D01*
X172320495Y-69839099D01*
X172392112Y-69950394D01*
X172501386Y-70025058D01*
X172631100Y-70051326D01*
X174663100Y-70051326D01*
X174784279Y-70028525D01*
X174895574Y-69956908D01*
X174970238Y-69847634D01*
X174996506Y-69717920D01*
X174996506Y-67685920D01*
X174973705Y-67564741D01*
X174902088Y-67453446D01*
X174792814Y-67378782D01*
X174737448Y-67367570D01*
X175053485Y-67026738D01*
X175253075Y-66544864D01*
X175133936Y-66288920D01*
X173774100Y-66288920D01*
X173774100Y-66308920D01*
X173520100Y-66308920D01*
X173520100Y-66288920D01*
X172160264Y-66288920D01*
X172041125Y-66544864D01*
X161370700Y-66544864D01*
X161290871Y-66143539D01*
X161049300Y-65782001D01*
X161044773Y-65778976D01*
X172041125Y-65778976D01*
X172160264Y-66034920D01*
X173520100Y-66034920D01*
X173520100Y-64674553D01*
X173774100Y-64674553D01*
X173774100Y-66034920D01*
X175133936Y-66034920D01*
X175253075Y-65778976D01*
X175053485Y-65297102D01*
X174615479Y-64824732D01*
X174030046Y-64555937D01*
X173774100Y-64674553D01*
X173520100Y-64674553D01*
X173264154Y-64555937D01*
X172678721Y-64824732D01*
X172240715Y-65297102D01*
X172041125Y-65778976D01*
X161044773Y-65778976D01*
X160687762Y-65540430D01*
X160261300Y-65455601D01*
X159834838Y-65540430D01*
X159473300Y-65782001D01*
X159231729Y-66143539D01*
X159146900Y-66570001D01*
X158835700Y-66570001D01*
X158750871Y-66143539D01*
X158509300Y-65782001D01*
X158147762Y-65540430D01*
X157721300Y-65455601D01*
X157294838Y-65540430D01*
X156933300Y-65782001D01*
X156691729Y-66143539D01*
X156606900Y-66570001D01*
X156295700Y-66570001D01*
X156210871Y-66143539D01*
X155969300Y-65782001D01*
X155607762Y-65540430D01*
X155181300Y-65455601D01*
X154754838Y-65540430D01*
X154393300Y-65782001D01*
X154151729Y-66143539D01*
X154066900Y-66570001D01*
X153755700Y-66570001D01*
X153670871Y-66143539D01*
X153429300Y-65782001D01*
X153067762Y-65540430D01*
X152641300Y-65455601D01*
X152214838Y-65540430D01*
X151853300Y-65782001D01*
X151611729Y-66143539D01*
X151526900Y-66570001D01*
X151215700Y-66570001D01*
X151130871Y-66143539D01*
X150889300Y-65782001D01*
X150527762Y-65540430D01*
X150101300Y-65455601D01*
X149674838Y-65540430D01*
X149313300Y-65782001D01*
X149071729Y-66143539D01*
X148986900Y-66570001D01*
X148675700Y-66570001D01*
X148590871Y-66143539D01*
X148349300Y-65782001D01*
X147987762Y-65540430D01*
X147561300Y-65455601D01*
X147134838Y-65540430D01*
X146773300Y-65782001D01*
X146531729Y-66143539D01*
X146446900Y-66570001D01*
X146135700Y-66570001D01*
X146050871Y-66143539D01*
X145809300Y-65782001D01*
X145447762Y-65540430D01*
X145021300Y-65455601D01*
X144594838Y-65540430D01*
X144233300Y-65782001D01*
X143991729Y-66143539D01*
X143906900Y-66570001D01*
X127473120Y-66570001D01*
X127473120Y-63718017D01*
X176268868Y-63602280D01*
X176428235Y-63602280D01*
X176390527Y-92749960D01*
M02*
